<?xml version="1.0" standalone="no"?>
<!DOCTYPE svg PUBLIC "-//W3C//DTD SVG 20010904//EN"
 "http://www.w3.org/TR/2001/REC-SVG-20010904/DTD/svg10.dtd">
<svg version="1.0" xmlns="http://www.w3.org/2000/svg"
 width="360.000000pt" height="360.000000pt" viewBox="0 0 360.000000 360.000000"
 preserveAspectRatio="xMidYMid meet">

<g transform="translate(0.000000,360.000000) scale(0.100000,-0.100000)"
fill="#000000" stroke="none">
<path d="M1716 2018 l7 -88 -96 0 c-88 0 -98 2 -126 26 -24 19 -31 34 -31 60
l0 34 -342 -1 -343 0 74 -19 c166 -44 270 -151 271 -277 0 -29 1 -53 3 -53 1
0 29 9 62 21 73 25 210 35 289 20 96 -18 190 -67 246 -128 27 -29 51 -66 55
-83 8 -38 22 -38 30 0 4 17 28 54 55 83 56 61 150 110 246 128 79 15 216 5
289 -20 33 -12 61 -21 62 -21 2 0 3 24 3 53 1 126 106 233 273 277 l72 19
-342 0 -343 1 0 -34 c0 -26 -7 -41 -31 -60 -28 -24 -38 -26 -126 -26 l-96 0 7
81 c4 53 3 78 -4 74 -5 -3 -10 -18 -10 -33 0 -41 -10 -47 -70 -47 -59 0 -70 7
-70 45 0 14 -5 32 -10 40 -7 10 -8 -13 -4 -72z"/>
</g>
</svg>
